<?xml version="1.0" encoding="utf-8"?>
<!-- Generator: Adobe Illustrator 25.0.1, SVG Export Plug-In . SVG Version: 6.00 Build 0)  -->
<svg version="1.1" id="Слой_1" xmlns="http://www.w3.org/2000/svg" xmlns:xlink="http://www.w3.org/1999/xlink" x="0px" y="0px"
	 viewBox="0 0 1417.32 1417.32" style="enable-background:new 0 0 1417.32 1417.32;" xml:space="preserve">
<style type="text/css">
	.st0{fill:url(#SVGID_1_);}
	.st1{fill:url(#SVGID_2_);}
	.st2{fill:url(#SVGID_3_);}
	.st3{fill:url(#SVGID_4_);}
	.st4{fill:url(#SVGID_5_);}
	.st5{fill:url(#SVGID_6_);}
	.st6{fill:#F6F6F6;}
	.st7{fill:url(#SVGID_7_);}
	.st8{fill:url(#SVGID_8_);}
</style>
<g>
	<g>
		<g>
			<g>
				<g>
					<linearGradient id="SVGID_1_" gradientUnits="userSpaceOnUse" x1="329.0357" y1="739.1396" x2="342.5515" y2="739.1396">
						<stop  offset="0" style="stop-color:#A8CD75"/>
						<stop  offset="1" style="stop-color:#49BED3"/>
					</linearGradient>
					<path class="st0" d="M342.06,740.95l-4.45,4.46c-0.64,0.63-1.77,0.63-2.4,0l-5.66-5.67c-0.66-0.66-0.66-1.73,0-2.4l4.45-4.46
						c0.32-0.31,0.74-0.49,1.2-0.49c0.45,0,0.88,0.18,1.2,0.49l5.66,5.67C342.72,739.22,342.72,740.29,342.06,740.95z"/>
				</g>
				<g>
					<linearGradient id="SVGID_2_" gradientUnits="userSpaceOnUse" x1="340.7238" y1="750.8268" x2="354.2397" y2="750.8268">
						<stop  offset="0" style="stop-color:#A8CD75"/>
						<stop  offset="1" style="stop-color:#49BED3"/>
					</linearGradient>
					<path class="st1" d="M354.24,751.44c0,0.45-0.18,0.88-0.49,1.2l-4.46,4.45c-0.64,0.64-1.77,0.64-2.4,0l-5.67-5.66
						c-0.31-0.32-0.49-0.75-0.49-1.2c0-0.46,0.18-0.88,0.49-1.2l4.46-4.45c0.31-0.32,0.74-0.5,1.19-0.5c0.46,0,0.89,0.18,1.2,0.5
						l5.67,5.66C354.06,750.56,354.24,750.98,354.24,751.44z"/>
				</g>
				<g>
					<linearGradient id="SVGID_3_" gradientUnits="userSpaceOnUse" x1="352.5855" y1="762.6884" x2="366.1054" y2="762.6884">
						<stop  offset="0" style="stop-color:#A8CD75"/>
						<stop  offset="1" style="stop-color:#49BED3"/>
					</linearGradient>
					<path class="st2" d="M365.61,764.5l-4.46,4.46c-0.64,0.64-1.77,0.64-2.4,0l-5.66-5.66c-0.31-0.32-0.49-0.75-0.49-1.2
						c0-0.46,0.18-0.88,0.49-1.2l4.46-4.46c0.31-0.31,0.74-0.49,1.19-0.49c0.46,0,0.89,0.18,1.2,0.49l5.67,5.67
						C366.27,762.76,366.27,763.84,365.61,764.5z"/>
				</g>
				<g>
					<linearGradient id="SVGID_4_" gradientUnits="userSpaceOnUse" x1="364.3907" y1="774.4936" x2="377.9065" y2="774.4936">
						<stop  offset="0" style="stop-color:#A8CD75"/>
						<stop  offset="1" style="stop-color:#49BED3"/>
					</linearGradient>
					<path class="st3" d="M377.91,775.11c0,0.45-0.18,0.88-0.49,1.2l-4.46,4.45c-0.64,0.64-1.77,0.64-2.4,0l-5.67-5.66
						c-0.31-0.32-0.49-0.75-0.49-1.2c0-0.46,0.18-0.88,0.49-1.2l4.46-4.45c0.33-0.33,0.77-0.5,1.19-0.5c0.44,0,0.87,0.17,1.2,0.5
						l5.67,5.66C377.73,774.23,377.91,774.65,377.91,775.11z"/>
				</g>
			</g>
			<linearGradient id="SVGID_5_" gradientUnits="userSpaceOnUse" x1="341.1172" y1="686.1182" x2="445.5926" y2="686.1182">
				<stop  offset="0" style="stop-color:#A8CD75"/>
				<stop  offset="1" style="stop-color:#49BED3"/>
			</linearGradient>
			<path class="st4" d="M444.53,709.18l-13.1,13.1c-1.4,1.41-3.7,1.41-5.11,0c-3.27-3.44-40.48-42.56-43.5-44.62
				c-1.35-0.92-2.56-0.78-2.56-0.78c-1.08,0.13-1.87,0.85-2.33,1.39c-2.64,2.68-24.69,25.09-26.79,26.29
				c-0.74,0.42-1.45,0.39-1.45,0.39c-1-0.05-1.77-0.77-2.2-1.27l-5.32-5.31c-1.41-1.41-1.41-3.7,0-5.12l34.14-34.14l0.1-0.15
				c0.15-0.25,0.32-0.46,0.51-0.65l8.38-8.38c1.41-1.4,3.7-1.4,5.12,0l54.12,54.13C445.95,705.48,445.95,707.77,444.53,709.18z"/>
		</g>
		<g>
			<linearGradient id="SVGID_6_" gradientUnits="userSpaceOnUse" x1="312.3134" y1="702.7336" x2="422.884" y2="702.7336">
				<stop  offset="0" style="stop-color:#A8CD75"/>
				<stop  offset="1" style="stop-color:#49BED3"/>
			</linearGradient>
			<path class="st5" d="M421.53,732.43l-0.87,0.87c-1.81,1.81-4.75,1.81-6.56,0l-23.15-23.15l-3.72,3.72l23.15,23.15
				c1.81,1.81,1.81,4.74,0,6.56l-0.87,0.86c-1.81,1.81-4.74,1.82-6.56,0L379.8,721.3l-4.06,4.05l23.15,23.15
				c0.88,0.87,1.36,2.04,1.36,3.28c0,1.24-0.48,2.4-1.36,3.28l-0.87,0.86c-1.81,1.81-4.74,1.81-6.55,0l-23.15-23.14l-4.05,4.05
				l23.76,23.76c1.81,1.81,1.81,4.75,0,6.56l-0.87,0.87c-0.88,0.87-2.04,1.36-3.28,1.36c-1.23,0-2.4-0.48-3.28-1.36l-66.93-66.93
				c-1.82-1.81-1.82-4.75-0.01-6.56l57.11-57.11c0.9-0.9,2.1-1.36,3.28-1.36c1.19,0,2.37,0.45,3.28,1.36l3.27,3.27
				c0.88,0.88,1.36,2.04,1.36,3.28c0,1.24-0.48,2.4-1.36,3.28c-15.33,15.31-30.66,30.62-45.99,45.93c-0.52,0.6-1.14,1.53-1.2,2.7
				c-0.09,1.93,1.43,3.1,3.95,5.62c3.09,3.1,5.66,6.2,9.93,9.64c0.55,0.45,1.55,1.22,2.89,1.26c1.66,0.04,2.93-1.06,3.56-1.63
				c2.41-2.19,11.2-11.01,22.94-23.19c0.28-0.28,0.73-0.66,1.38-0.95c0.59-0.26,1.23-0.4,1.9-0.4c1.24,0,2.4,0.48,3.28,1.36
				l38.28,38.28C423.34,727.68,423.34,730.62,421.53,732.43z"/>
		</g>
	</g>
	<g>
		<path d="M651.36,744.05c0,0.21,0.02,0.42,0.04,0.62v-1.23C651.38,743.64,651.36,743.85,651.36,744.05z"/>
		<path d="M651.36,671.55c0,0.15,0,0.28,0.02,0.43c0-0.36,0-0.7,0.02-1.02C651.38,671.16,651.36,671.34,651.36,671.55z
			 M656.23,666.7c-0.25,0-0.49,0.02-0.72,0.06c0.43-0.02,0.91-0.02,1.38-0.02C656.68,666.72,656.45,666.7,656.23,666.7z"/>
		<path class="st6" d="M733.22,674.23c-1.11-1.42-11.82-14.69-30.02-19.43c-2.23-0.59-4.78-1.02-7.5-1.36h-41.22
			c-1.45,0.09-2.49,0.17-3,0.17c-8.46,0.17-13.63,6.16-13.84,16.07c-0.11,5.85-0.09,11.8-0.08,17.54c0.02,2.42,0.02,4.81,0.02,7.23
			v14.46c-0.02,12.31-0.02,25.04,0.02,37.55c0.04,10.99,5.4,16.33,16.39,16.35h32.57c14.39-0.06,25.26-4.68,25.26-4.68
			c2.11-0.89,8.87-3.93,15.58-10.25c16.16-15.22,17.29-35.72,17.39-37.8C744.93,706.5,745.27,689.56,733.22,674.23z M713.93,741.24
			c-8.31,5.83-17.12,7.53-23.2,7.61c-9.16,0.15-18.14,0.11-27.64,0.08c-2.25-0.02-4.49-0.02-6.76-0.02h-0.21
			c-2.42-0.06-4.42-1.87-4.72-4.23c-0.02-0.21-0.04-0.42-0.04-0.62c0-0.21,0.02-0.42,0.04-0.6c-0.04-23.54-0.04-47.13-0.02-70.67
			v-0.79c-0.02-0.15-0.02-0.28-0.02-0.43c0-0.21,0.02-0.4,0.04-0.59v-0.02c0.26-2.15,1.96-3.87,4.12-4.19
			c0.23-0.04,0.47-0.06,0.72-0.06h21.51c4.34,0,8.7,0.02,13.03,0.08c4.46,0.06,15.82,1.42,25.51,9.19
			c14.63,11.74,15.01,30.55,15.01,31.57C731.34,722.27,723.41,734.58,713.93,741.24z"/>
		<path class="st6" d="M613.94,654.11c-0.01,0-0.02,0-0.03,0c-2.03,0-3.65,0.59-4.8,1.74c-1.89,1.89-2.13,4.87-2.12,7.81
			c0.05,10.87,0.04,21.92,0.04,32.6l-0.01,12.33l0,12.4c0.01,10.83,0.01,22.03-0.03,33.05c-0.01,2.71-0.03,9.07,6.72,9.17
			c0.05,0,0.11,0,0.16,0c1.98,0,3.56-0.58,4.72-1.71c1.93-1.9,2.18-4.89,2.18-7.28c0-15.61,0-31.22,0-46.83c0-14.69,0-29.38,0-44.07
			C620.8,661.04,620.8,654.12,613.94,654.11z"/>
		<linearGradient id="SVGID_7_" gradientUnits="userSpaceOnUse" x1="539.8366" y1="710.7649" x2="539.8366" y2="763.7136">
			<stop  offset="0" style="stop-color:#A8CD75"/>
			<stop  offset="1" style="stop-color:#49BED3"/>
		</linearGradient>
		<path class="st7" d="M546.74,742.69c0-1.82,0.01-3.65,0.01-5.47c0-1.84-0.01-3.67-0.01-5.51c-0.01-4.3-0.02-8.74,0.03-13.11
			c0.05-4.66-2.39-7.58-6.53-7.82c-1.99-0.12-3.72,0.45-5,1.65c-1.41,1.32-2.2,3.33-2.23,5.68c-0.14,12.93-0.14,25.81,0.01,38.3
			c0.03,2.34,0.82,4.35,2.24,5.66c1.17,1.08,2.7,1.64,4.46,1.64c0.19,0,0.38-0.01,0.57-0.02c4.17-0.28,6.53-3.14,6.48-7.86
			C546.72,751.46,546.73,747,546.74,742.69z"/>
		<path class="st6" d="M591.1,706.04c-0.01-2.58-0.01-5.16,0-7.75c0.02-8.25,0.03-16.78-0.5-25.16
			c-0.73-11.48-6.86-17.68-18.74-18.96c-24.35-2.61-45.32,3.84-62.31,19.18c-14.64,13.22-21.47,27.77-20.9,44.47
			c0,0.09-0.01,0.18-0.01,0.28c-0.13,11.77-0.13,23.49-0.02,34.93c-0.08,0.92-0.13,1.89,0.02,2.83c0,0.18,0,0.36,0,0.54
			c0.03,2.34,0.82,4.35,2.24,5.66c1.17,1.08,2.7,1.64,4.46,1.64c0.19,0,0.38-0.01,0.57-0.02c0.06,0,0.11-0.02,0.17-0.03
			c1.15,0.06,2.22-0.22,3.16-0.84c0.47-0.31,0.88-0.71,1.26-1.16c0.99-1.07,1.62-2.53,1.82-4.35c0.01-0.06,0.02-0.11,0.03-0.17
			c0.19-1.31,0.02-39.66-0.04-40.18c-0.13-13.16,5.47-23.99,17.91-34.81c13.02-11.32,28.7-16.05,47.94-14.46
			c7.84,0.65,9.13,1.92,9.16,9.06c0.04,8.86,0.03,17.87,0.03,26.59c0,4.11-0.01,8.21-0.01,12.32l0.01,9.98
			c0.01,10.15,0.01,20.29-0.02,30.44c-0.01,4.66,2.52,7.51,6.76,7.63c0.08,0,0.16,0,0.23,0c3.73,0,6.22-2.59,6.69-6.97
			c0.14-1.28,0.13-2.56,0.12-3.79l0-0.91l0.01-12.26C591.14,728.72,591.15,717.29,591.1,706.04z"/>
		<path class="st6" d="M1098.14,653.04h-90.51c-1.39,0-2.79-0.01-4.18-0.03c-2.77-0.03-5.64-0.05-8.46,0.03l-0.13,0
			c-1.85,0-3.67,0.83-5.01,2.27c-1.27,1.37-1.93,3.1-1.85,4.88c0.17,3.93,3.19,7,6.86,7h90.52c1.39,0,2.79,0.01,4.18,0.03
			c1.38,0.01,2.79,0.03,4.21,0.03c1.42,0,2.84-0.01,4.26-0.05l0.12,0c1.85,0,3.67-0.83,5.01-2.27c1.27-1.37,1.93-3.1,1.85-4.87
			C1104.83,656.12,1101.82,653.04,1098.14,653.04z"/>
		<path class="st6" d="M1051.3,685.81c-1.37-1.33-3.1-2.01-4.88-1.94c-3.93,0.18-7,3.34-7,7.19v64.51c0,1.93,0.83,3.85,2.27,5.25
			c1.29,1.25,2.92,1.94,4.6,1.94l0.28-0.01c3.93-0.18,7-3.34,7-7.19v-64.51C1053.57,689.13,1052.74,687.22,1051.3,685.81z"/>
		<path class="st6" d="M855.13,654.9c-1.37-1.3-3.1-1.97-4.88-1.91c-3.93,0.18-7,3.28-7,7.07v0.78c-0.06,0.58,0.12,77.42,0.11,84.17
			c0,0.64-0.02,1.29-0.06,1.94c-1.37-1.33-2.47-2.77-3.59-4.39c-8.07-11.67-16.13-23.34-24.19-35.02
			c-10.83-15.68-21.66-31.37-32.51-47.04c-4.33-6.26-9.78-8.76-15.34-7.05c-3.91,1.21-8.64,4.66-8.97,14.23
			c-0.03,0.78-0.02,1.56-0.02,2.34v0.12c0,0.03-0.01,0.05-0.01,0.08v21.98v61.32v2.15c0,1.9,0.83,3.78,2.27,5.17
			c1.29,1.23,2.92,1.91,4.6,1.91l0.28-0.01c3.93-0.18,7-3.28,7-7.07v-2.15v-61.32v-21.98c0-0.1-0.02-0.19-0.02-0.29
			c0.5,0.66,1,1.32,1.46,1.99c8.04,11.62,16.08,23.24,24.12,34.86c10.11,14.61,20.22,29.22,30.33,43.83c1.51,2.19,3.14,4.5,4.96,6.6
			c4.46,5.16,9.58,6.72,15.21,4.66c5.64-2.06,8.39-6.45,8.4-13.4c0.01-7.94,0.11-88.43,0.11-88.43
			C857.4,658.17,856.57,656.28,855.13,654.9z"/>
		<linearGradient id="SVGID_8_" gradientUnits="userSpaceOnUse" x1="906.8036" y1="706.3051" x2="973.5294" y2="706.3051">
			<stop  offset="0" style="stop-color:#A8CD75"/>
			<stop  offset="1" style="stop-color:#49BED3"/>
		</linearGradient>
		<path class="st8" d="M966.99,699.77h-53.65c-1.75,0-3.49,0.77-4.77,2.1c-1.21,1.26-1.83,2.85-1.76,4.47
			c0.16,3.64,3.03,6.48,6.53,6.48h53.65c1.75,0,3.49-0.77,4.77-2.1c1.21-1.26,1.83-2.85,1.76-4.47
			C973.36,702.62,970.49,699.77,966.99,699.77z"/>
		<path d="M731.26,706.6L731.26,706.6z"/>
		<path class="st6" d="M967.3,749.4l-50.99,0.01l-0.23,0c-3.71,0.01-7.55,0.02-11.31-0.01c-8.74-0.08-17.81-6.15-17.85-16.18
			c-0.05-10.54-0.03-21.25-0.02-31.61c0.01-5.27,0.02-10.54,0.02-15.81v-0.55c0-2.44-0.01-4.55,0.65-6.69
			c1.45-4.73,5.7-8.88,10.83-10.56c4.05-1.33,8.82-1.21,13.43-1.09c1.27,0.03,2.59,0.07,3.88,0.07h51.59c4.39,0,6.68-3.44,6.68-6.85
			c0-1.74-0.59-3.39-1.65-4.63c-1.23-1.43-3.01-2.21-5.03-2.21h-47.09c-1.74,0-3.53-0.03-5.26-0.07l-0.15,0
			c-4.04-0.08-8.22-0.16-12.34,0.15c-16.49,1.25-29.06,13.95-29.23,29.54c-0.12,10.8-0.08,21.63-0.04,32.11l0.01,1.34
			c0.02,4.9,0.03,9.79,0.03,14.69c0,3.59,0.11,7.4,1.38,11.17c2.63,7.78,8.42,14.23,15.91,17.69c6.38,2.95,13.04,3.2,19.32,3.2
			l57.47-0.01c4.39,0,6.68-3.44,6.68-6.85C973.99,752.84,971.69,749.4,967.3,749.4z"/>
	</g>
</g>
</svg>
